<svg width="136" height="71" viewBox="0 0 136 71" fill="none" xmlns="http://www.w3.org/2000/svg">
<path d="M49.16 14.264C50.088 14.568 50.824 15.08 51.368 15.8C51.912 16.504 52.184 17.384 52.184 18.44C52.184 19.896 51.624 21.024 50.504 21.824C49.384 22.608 47.752 23 45.608 23H37.256V6.2H45.128C47.112 6.2 48.64 6.592 49.712 7.376C50.784 8.144 51.32 9.208 51.32 10.568C51.32 11.4 51.128 12.136 50.744 12.776C50.36 13.416 49.832 13.912 49.16 14.264ZM40.376 8.648V13.28H44.792C45.88 13.28 46.712 13.088 47.288 12.704C47.88 12.304 48.176 11.728 48.176 10.976C48.176 10.208 47.88 9.632 47.288 9.248C46.712 8.848 45.88 8.648 44.792 8.648H40.376ZM45.416 20.552C47.832 20.552 49.04 19.744 49.04 18.128C49.04 16.512 47.832 15.704 45.416 15.704H40.376V20.552H45.416ZM70.0338 6.2V23H67.0338V20.864C65.8978 22.448 64.1378 23.24 61.7538 23.24C59.7698 23.24 58.2098 22.624 57.0738 21.392C55.9378 20.144 55.3698 18.384 55.3698 16.112V6.2H58.4898V15.992C58.4898 17.48 58.8418 18.608 59.5458 19.376C60.2658 20.128 61.2498 20.504 62.4978 20.504C63.8418 20.504 64.9138 20.104 65.7138 19.304C66.5138 18.488 66.9138 17.28 66.9138 15.68V6.2H70.0338ZM80.3291 15.968L77.6651 18.704V23H74.5451V6.2H77.6651V14.816L85.9691 6.2H89.4731L82.4171 13.712L89.9051 23H86.2571L80.3291 15.968ZM96.9494 8.816V20.384H100.045V23H90.7574V20.384H93.8534V8.816H90.7574V6.2H100.045V8.816H96.9494ZM114.943 10.376C113.359 9.48 111.711 8.936 109.999 8.744V23H106.879V8.744C105.151 8.936 103.495 9.48 101.911 10.376L100.831 7.976C101.951 7.304 103.151 6.8 104.431 6.464C105.727 6.128 107.055 5.96 108.415 5.96C109.775 5.96 111.103 6.128 112.399 6.464C113.695 6.8 114.903 7.304 116.023 7.976L114.943 10.376Z" fill="#34BD95"/>
<path d="M5.20597 68V64.784L5.48197 65.528L1.86997 59.6H3.15397L6.18997 64.604H5.49397L8.54197 59.6H9.72997L6.12997 65.528L6.39397 64.784V68H5.20597ZM12.7887 68.072C12.1487 68.072 11.5807 67.932 11.0847 67.652C10.5887 67.372 10.1967 66.988 9.90866 66.5C9.62066 66.004 9.47666 65.444 9.47666 64.82C9.47666 64.188 9.62066 63.628 9.90866 63.14C10.1967 62.652 10.5887 62.272 11.0847 62C11.5807 61.72 12.1487 61.58 12.7887 61.58C13.4207 61.58 13.9847 61.72 14.4807 62C14.9847 62.272 15.3767 62.652 15.6567 63.14C15.9447 63.62 16.0887 64.18 16.0887 64.82C16.0887 65.452 15.9447 66.012 15.6567 66.5C15.3767 66.988 14.9847 67.372 14.4807 67.652C13.9847 67.932 13.4207 68.072 12.7887 68.072ZM12.7887 67.064C13.1967 67.064 13.5607 66.972 13.8807 66.788C14.2087 66.604 14.4647 66.344 14.6487 66.008C14.8327 65.664 14.9247 65.268 14.9247 64.82C14.9247 64.364 14.8327 63.972 14.6487 63.644C14.4647 63.308 14.2087 63.048 13.8807 62.864C13.5607 62.68 13.1967 62.588 12.7887 62.588C12.3807 62.588 12.0167 62.68 11.6967 62.864C11.3767 63.048 11.1207 63.308 10.9287 63.644C10.7367 63.972 10.6407 64.364 10.6407 64.82C10.6407 65.268 10.7367 65.664 10.9287 66.008C11.1207 66.344 11.3767 66.604 11.6967 66.788C12.0167 66.972 12.3807 67.064 12.7887 67.064ZM20.3578 68.072C19.8138 68.072 19.3338 67.972 18.9178 67.772C18.5098 67.572 18.1898 67.268 17.9578 66.86C17.7338 66.444 17.6218 65.924 17.6218 65.3V61.64H18.7738V65.168C18.7738 65.792 18.9218 66.26 19.2178 66.572C19.5218 66.884 19.9458 67.04 20.4898 67.04C20.8898 67.04 21.2378 66.96 21.5338 66.8C21.8298 66.632 22.0578 66.392 22.2178 66.08C22.3778 65.76 22.4578 65.376 22.4578 64.928V61.64H23.6098V68H22.5178V66.284L22.6978 66.74C22.4898 67.164 22.1778 67.492 21.7618 67.724C21.3458 67.956 20.8778 68.072 20.3578 68.072ZM25.8029 68V61.64H26.9069V63.368L26.7989 62.936C26.9749 62.496 27.2709 62.16 27.6869 61.928C28.1029 61.696 28.6149 61.58 29.2229 61.58V62.696C29.1749 62.688 29.1269 62.684 29.0789 62.684C29.0389 62.684 28.9989 62.684 28.9589 62.684C28.3429 62.684 27.8549 62.868 27.4949 63.236C27.1349 63.604 26.9549 64.136 26.9549 64.832V68H25.8029ZM37.8715 68.096C37.2315 68.096 36.6395 67.992 36.0955 67.784C35.5595 67.568 35.0915 67.268 34.6915 66.884C34.2995 66.492 33.9915 66.036 33.7675 65.516C33.5435 64.996 33.4315 64.424 33.4315 63.8C33.4315 63.176 33.5435 62.604 33.7675 62.084C33.9915 61.564 34.3035 61.112 34.7035 60.728C35.1035 60.336 35.5715 60.036 36.1075 59.828C36.6515 59.612 37.2435 59.504 37.8835 59.504C38.5315 59.504 39.1275 59.616 39.6715 59.84C40.2235 60.056 40.6915 60.38 41.0755 60.812L40.2955 61.568C39.9755 61.232 39.6155 60.984 39.2155 60.824C38.8155 60.656 38.3875 60.572 37.9315 60.572C37.4595 60.572 37.0195 60.652 36.6115 60.812C36.2115 60.972 35.8635 61.196 35.5675 61.484C35.2715 61.772 35.0395 62.116 34.8715 62.516C34.7115 62.908 34.6315 63.336 34.6315 63.8C34.6315 64.264 34.7115 64.696 34.8715 65.096C35.0395 65.488 35.2715 65.828 35.5675 66.116C35.8635 66.404 36.2115 66.628 36.6115 66.788C37.0195 66.948 37.4595 67.028 37.9315 67.028C38.3875 67.028 38.8155 66.948 39.2155 66.788C39.6155 66.62 39.9755 66.364 40.2955 66.02L41.0755 66.776C40.6915 67.208 40.2235 67.536 39.6715 67.76C39.1275 67.984 38.5275 68.096 37.8715 68.096ZM45.1293 68L41.4333 59.6H42.7293L46.1253 67.352H45.3813L48.8013 59.6H50.0013L46.3173 68H45.1293ZM53.1989 68L57.0029 59.6H58.1909L62.0069 68H60.7469L57.3509 60.272H57.8309L54.4349 68H53.1989ZM54.8189 65.9L55.1429 64.94H59.8709L60.2189 65.9H54.8189ZM66.488 61.58C67.008 61.58 67.464 61.68 67.856 61.88C68.256 62.08 68.568 62.384 68.792 62.792C69.016 63.2 69.128 63.716 69.128 64.34V68H67.976V64.472C67.976 63.856 67.824 63.392 67.52 63.08C67.224 62.768 66.804 62.612 66.26 62.612C65.852 62.612 65.496 62.692 65.192 62.852C64.888 63.012 64.652 63.248 64.484 63.56C64.324 63.872 64.244 64.26 64.244 64.724V68H63.092V61.64H64.196V63.356L64.016 62.9C64.224 62.484 64.544 62.16 64.976 61.928C65.408 61.696 65.912 61.58 66.488 61.58ZM75.208 68V66.656L75.148 66.404V64.112C75.148 63.624 75.004 63.248 74.716 62.984C74.436 62.712 74.012 62.576 73.444 62.576C73.068 62.576 72.7 62.64 72.34 62.768C71.98 62.888 71.676 63.052 71.428 63.26L70.948 62.396C71.276 62.132 71.668 61.932 72.124 61.796C72.588 61.652 73.072 61.58 73.576 61.58C74.448 61.58 75.12 61.792 75.592 62.216C76.064 62.64 76.3 63.288 76.3 64.16V68H75.208ZM73.12 68.072C72.648 68.072 72.232 67.992 71.872 67.832C71.52 67.672 71.248 67.452 71.056 67.172C70.864 66.884 70.768 66.56 70.768 66.2C70.768 65.856 70.848 65.544 71.008 65.264C71.176 64.984 71.444 64.76 71.812 64.592C72.188 64.424 72.692 64.34 73.324 64.34H75.34V65.168H73.372C72.796 65.168 72.408 65.264 72.208 65.456C72.008 65.648 71.908 65.88 71.908 66.152C71.908 66.464 72.032 66.716 72.28 66.908C72.528 67.092 72.872 67.184 73.312 67.184C73.744 67.184 74.12 67.088 74.44 66.896C74.768 66.704 75.004 66.424 75.148 66.056L75.376 66.848C75.224 67.224 74.956 67.524 74.572 67.748C74.188 67.964 73.704 68.072 73.12 68.072ZM78.4318 68V59.096H79.5838V68H78.4318ZM82.0594 70.4C81.7554 70.4 81.4594 70.348 81.1714 70.244C80.8834 70.148 80.6354 70.004 80.4274 69.812L80.9194 68.948C81.0794 69.1 81.2554 69.216 81.4474 69.296C81.6394 69.376 81.8434 69.416 82.0594 69.416C82.3394 69.416 82.5714 69.344 82.7554 69.2C82.9394 69.056 83.1114 68.8 83.2714 68.432L83.6674 67.556L83.7874 67.412L86.2834 61.64H87.4114L84.3274 68.636C84.1434 69.084 83.9354 69.436 83.7034 69.692C83.4794 69.948 83.2314 70.128 82.9594 70.232C82.6874 70.344 82.3874 70.4 82.0594 70.4ZM83.5714 68.204L80.6674 61.64H81.8674L84.3394 67.304L83.5714 68.204ZM87.7573 68V67.256L91.8373 62.192L92.0653 62.588H87.8293V61.64H92.9893V62.396L88.9093 67.448L88.6453 67.052H93.0853V68H87.7573ZM97.3654 68.072C96.6854 68.072 96.0854 67.932 95.5654 67.652C95.0534 67.372 94.6534 66.988 94.3654 66.5C94.0854 66.012 93.9454 65.452 93.9454 64.82C93.9454 64.188 94.0814 63.628 94.3534 63.14C94.6334 62.652 95.0134 62.272 95.4934 62C95.9814 61.72 96.5294 61.58 97.1374 61.58C97.7534 61.58 98.2974 61.716 98.7694 61.988C99.2414 62.26 99.6094 62.644 99.8734 63.14C100.145 63.628 100.281 64.2 100.281 64.856C100.281 64.904 100.277 64.96 100.269 65.024C100.269 65.088 100.265 65.148 100.257 65.204H94.8454V64.376H99.6574L99.1894 64.664C99.1974 64.256 99.1134 63.892 98.9374 63.572C98.7614 63.252 98.5174 63.004 98.2054 62.828C97.9014 62.644 97.5454 62.552 97.1374 62.552C96.7374 62.552 96.3814 62.644 96.0694 62.828C95.7574 63.004 95.5134 63.256 95.3374 63.584C95.1614 63.904 95.0734 64.272 95.0734 64.688V64.88C95.0734 65.304 95.1694 65.684 95.3614 66.02C95.5614 66.348 95.8374 66.604 96.1894 66.788C96.5414 66.972 96.9454 67.064 97.4014 67.064C97.7774 67.064 98.1174 67 98.4214 66.872C98.7334 66.744 99.0054 66.552 99.2374 66.296L99.8734 67.04C99.5854 67.376 99.2254 67.632 98.7934 67.808C98.3694 67.984 97.8934 68.072 97.3654 68.072ZM101.881 68V61.64H102.985V63.368L102.877 62.936C103.053 62.496 103.349 62.16 103.765 61.928C104.181 61.696 104.693 61.58 105.301 61.58V62.696C105.253 62.688 105.205 62.684 105.157 62.684C105.117 62.684 105.077 62.684 105.037 62.684C104.421 62.684 103.933 62.868 103.573 63.236C103.213 63.604 103.033 64.136 103.033 64.832V68H101.881ZM108.922 68L112.726 59.6H113.914L117.73 68H116.47L113.074 60.272H113.554L110.158 68H108.922ZM110.542 65.9L110.866 64.94H115.594L115.942 65.9H110.542ZM122.187 68.072C121.659 68.072 121.175 67.952 120.735 67.712C120.303 67.464 119.955 67.1 119.691 66.62C119.435 66.14 119.307 65.54 119.307 64.82C119.307 64.1 119.431 63.5 119.679 63.02C119.935 62.54 120.279 62.18 120.711 61.94C121.151 61.7 121.643 61.58 122.187 61.58C122.811 61.58 123.363 61.716 123.843 61.988C124.323 62.26 124.703 62.64 124.983 63.128C125.263 63.608 125.403 64.172 125.403 64.82C125.403 65.468 125.263 66.036 124.983 66.524C124.703 67.012 124.323 67.392 123.843 67.664C123.363 67.936 122.811 68.072 122.187 68.072ZM118.815 70.328V61.64H119.919V63.356L119.847 64.832L119.967 66.308V70.328H118.815ZM122.091 67.064C122.499 67.064 122.863 66.972 123.183 66.788C123.511 66.604 123.767 66.344 123.951 66.008C124.143 65.664 124.239 65.268 124.239 64.82C124.239 64.364 124.143 63.972 123.951 63.644C123.767 63.308 123.511 63.048 123.183 62.864C122.863 62.68 122.499 62.588 122.091 62.588C121.691 62.588 121.327 62.68 120.999 62.864C120.679 63.048 120.423 63.308 120.231 63.644C120.047 63.972 119.955 64.364 119.955 64.82C119.955 65.268 120.047 65.664 120.231 66.008C120.423 66.344 120.679 66.604 120.999 66.788C121.327 66.972 121.691 67.064 122.091 67.064ZM130.366 68.072C129.838 68.072 129.354 67.952 128.914 67.712C128.482 67.464 128.134 67.1 127.87 66.62C127.614 66.14 127.486 65.54 127.486 64.82C127.486 64.1 127.61 63.5 127.858 63.02C128.114 62.54 128.458 62.18 128.89 61.94C129.33 61.7 129.822 61.58 130.366 61.58C130.99 61.58 131.542 61.716 132.022 61.988C132.502 62.26 132.882 62.64 133.162 63.128C133.442 63.608 133.582 64.172 133.582 64.82C133.582 65.468 133.442 66.036 133.162 66.524C132.882 67.012 132.502 67.392 132.022 67.664C131.542 67.936 130.99 68.072 130.366 68.072ZM126.994 70.328V61.64H128.098V63.356L128.026 64.832L128.146 66.308V70.328H126.994ZM130.27 67.064C130.678 67.064 131.042 66.972 131.362 66.788C131.69 66.604 131.946 66.344 132.13 66.008C132.322 65.664 132.418 65.268 132.418 64.82C132.418 64.364 132.322 63.972 132.13 63.644C131.946 63.308 131.69 63.048 131.362 62.864C131.042 62.68 130.678 62.588 130.27 62.588C129.87 62.588 129.506 62.68 129.178 62.864C128.858 63.048 128.602 63.308 128.41 63.644C128.226 63.972 128.134 64.364 128.134 64.82C128.134 65.268 128.226 65.664 128.41 66.008C128.602 66.344 128.858 66.604 129.178 66.788C129.506 66.972 129.87 67.064 130.27 67.064Z" fill="#34BD95"/>
<path d="M37.384 26.8H48.4C51.088 26.8 53.476 27.328 55.564 28.384C57.652 29.416 59.272 30.892 60.424 32.812C61.576 34.708 62.152 36.904 62.152 39.4C62.152 41.896 61.576 44.104 60.424 46.024C59.272 47.92 57.652 49.396 55.564 50.452C53.476 51.484 51.088 52 48.4 52H37.384V26.8ZM48.184 48.04C50.032 48.04 51.652 47.692 53.044 46.996C54.46 46.276 55.54 45.268 56.284 43.972C57.052 42.652 57.436 41.128 57.436 39.4C57.436 37.672 57.052 36.16 56.284 34.864C55.54 33.544 54.46 32.536 53.044 31.84C51.652 31.12 50.032 30.76 48.184 30.76H42.064V48.04H48.184ZM88.9062 26.8V52H84.4062V48.796C82.7022 51.172 80.0622 52.36 76.4862 52.36C73.5102 52.36 71.1702 51.436 69.4662 49.588C67.7622 47.716 66.9102 45.076 66.9102 41.668V26.8H71.5902V41.488C71.5902 43.72 72.1182 45.412 73.1742 46.564C74.2542 47.692 75.7302 48.256 77.6022 48.256C79.6182 48.256 81.2262 47.656 82.4262 46.456C83.6262 45.232 84.2262 43.42 84.2262 41.02V26.8H88.9062ZM112.161 52L107.013 44.62C106.797 44.644 106.473 44.656 106.041 44.656H100.353V52H95.6731V26.8H106.041C108.225 26.8 110.121 27.16 111.729 27.88C113.361 28.6 114.609 29.632 115.473 30.976C116.337 32.32 116.769 33.916 116.769 35.764C116.769 37.66 116.301 39.292 115.365 40.66C114.453 42.028 113.133 43.048 111.405 43.72L117.201 52H112.161ZM112.053 35.764C112.053 34.156 111.525 32.92 110.469 32.056C109.413 31.192 107.865 30.76 105.825 30.76H100.353V40.804H105.825C107.865 40.804 109.413 40.372 110.469 39.508C111.525 38.62 112.053 37.372 112.053 35.764ZM129.385 30.724V48.076H134.029V52H120.097V48.076H124.741V30.724H120.097V26.8H134.029V30.724H129.385Z" fill="#34BD95"/>
<path d="M15.4443 4C18.5813 11.1776 24.4439 16.89 31.7256 19.8281L15.9443 53.998L0 19.4746C6.89332 16.4457 12.4285 10.9003 15.4443 4Z" fill="#34BD95"/>
</svg>
